<svg
    xmlns="http://www.w3.org/2000/svg"
    width="40"
    height="40"
    viewbox="0 0 40 40"
    fill="none"
>
    <path
        d="M11.573 29.735H10.55v4.489h1.316c.389 0 .685-.104.887-.313s.303-.585.303-1.128v-1.274c0-.682-.115-1.148-.345-1.399s-.609-.376-1.138-.376h0zm.887-2.423c.243-.223.365-.626.365-1.211v-.814c0-.529-.094-.912-.282-1.148s-.484-.355-.887-.355H10.55v3.863h.898c.431 0 .769-.111 1.013-.334h0zM.87 18.891v11.648a8.58 8.58 0 0 0 8.577 8.577H38.27V27.468a8.58 8.58 0 0 0-8.577-8.577H.87zm14.482 13.955c0 1.127-.292 1.987-.877 2.579s-1.455.887-2.61.887H8.253V21.696h3.466c1.197 0 2.064.279 2.6.835s.804 1.399.804 2.526v.522c0 .752-.118 1.371-.355 1.858s-.613.849-1.127 1.086c.626.237 1.068.623 1.326 1.159s.386 1.194.386 1.973v1.19h0zm7.642-9.062h-3.967v4.072h3.153v2.088h-3.153v4.28h3.967v2.088H16.73V21.696h6.264v2.088zm7.893 0h-2.401v12.528h-2.297V23.784h-2.401v-2.088h7.099v2.088z"
        fill="#fedf00"
    />
    <path
        d="M10.156 1.739v11.934H7.525l-.004-8.057-1.047 8.057H4.608L3.504 5.801 3.5 13.674c-1.453 0-2.631-1.215-2.631-2.713V1.739h3.894l.357 2.537.427 3.036.692-5.573h3.916zm6.41 0l1.721 11.934h-3.076l-.162-2.145h-1.076l-.181 2.145h-3.111l1.535-11.934h4.35 0zm-1.595 7.674L14.513 4.4l-.578 5.013h1.036zm9.36-7.674l-2.195 7.615v4.32h-2.788v-4.32l-2.116-7.615h2.765l.731 4.703.838-4.703h2.765 0zm4.988 0l1.721 11.934h-3.076l-.161-2.145h-1.077l-.181 2.145h-3.111l1.535-11.934h4.35 0zm-1.595 7.674L27.265 4.4l-.578 5.013h1.036zM38.27 4.334v9.34h-2.638l-1.565-5.425v5.425h-2.516V1.739h2.516l1.687 5.374V1.739c1.39 0 2.516 1.162 2.516 2.595h0z"
        fill="#fff"
    />
</svg>